<svg width="175" height="79" viewBox="0 0 175 79" fill="none" xmlns="http://www.w3.org/2000/svg">
<path d="M2.765 48V46.416C3.981 46.352 4.813 46.08 5.261 45.6C5.709 45.088 5.949 44.4 5.981 43.536C6.045 42.64 6.077 41.632 6.077 40.512V19.776C6.077 19.136 6.093 18.528 6.125 17.952C6.157 17.344 6.189 16.8 6.221 16.32C5.645 16.352 5.069 16.384 4.493 16.416C3.917 16.448 3.341 16.48 2.765 16.512V14.4H13.565V15.984C12.381 16.016 11.549 16.288 11.069 16.8C10.621 17.312 10.365 18 10.301 18.864C10.269 19.728 10.253 20.736 10.253 21.888V42.48C10.253 43.344 10.237 44.08 10.205 44.688C10.205 45.296 10.173 45.808 10.109 46.224L19.085 46.08C21.101 46.048 22.621 45.408 23.645 44.16C24.701 42.912 25.229 40.88 25.229 38.064H26.861L26.573 48H2.765Z" fill="black"/>
<path d="M57.8868 29.576C57.7908 28.04 57.4228 26.584 56.7828 25.208C56.1428 23.832 55.2148 22.712 53.9988 21.848C52.7828 20.984 51.2308 20.552 49.3428 20.552C47.3588 20.552 45.8388 21.112 44.7828 22.232C43.7268 23.352 43.1988 24.664 43.1988 26.168C43.1988 27.512 43.5828 28.648 44.3508 29.576C45.1188 30.472 46.1108 31.272 47.3268 31.976C48.5748 32.648 49.8868 33.304 51.2628 33.944C52.4788 34.488 53.6948 35.08 54.9108 35.72C56.1268 36.328 57.2308 37.032 58.2228 37.832C59.2148 38.632 59.9988 39.592 60.5748 40.712C61.1828 41.8 61.4868 43.112 61.4868 44.648C61.4868 46.408 61.0388 47.976 60.1428 49.352C59.2788 50.728 58.0148 51.816 56.3508 52.616C54.6868 53.384 52.6548 53.768 50.2548 53.768C48.8148 53.768 47.3268 53.56 45.7908 53.144C44.2548 52.728 42.8948 52.12 41.7108 51.32L41.9508 53.384H39.4548L39.1668 43.16H41.0388C41.1988 45.976 42.1748 48.12 43.9668 49.592C45.7588 51.032 47.9188 51.752 50.4468 51.752C51.6948 51.752 52.8468 51.528 53.9028 51.08C54.9588 50.6 55.7908 49.912 56.3988 49.016C57.0388 48.12 57.3588 47.032 57.3588 45.752C57.3588 44.312 56.9748 43.112 56.2068 42.152C55.4388 41.192 54.4468 40.36 53.2308 39.656C52.0148 38.952 50.7188 38.28 49.3428 37.64C48.1268 37.096 46.9268 36.52 45.7428 35.912C44.5588 35.304 43.4708 34.616 42.4788 33.848C41.5188 33.048 40.7348 32.104 40.1268 31.016C39.5508 29.928 39.2628 28.616 39.2628 27.08C39.2628 26.248 39.4068 25.352 39.6948 24.392C39.9828 23.432 40.4788 22.52 41.1828 21.656C41.9188 20.76 42.9108 20.04 44.1588 19.496C45.4388 18.92 47.0548 18.632 49.0068 18.632C50.2228 18.632 51.5828 18.808 53.0868 19.16C54.6228 19.48 56.0468 20.12 57.3588 21.08L57.1668 19.016H59.6148V29.576H57.8868Z" fill="black"/>
<path d="M69.2394 39V37.944C70.05 37.9013 70.594 37.7093 70.8714 37.368C71.17 37.0267 71.33 36.568 71.3514 35.992C71.394 35.3947 71.4154 34.7333 71.4154 34.008L71.4474 30.36L65.8794 21.56C65.346 20.7067 64.9407 19.992 64.6634 19.416C64.4074 18.84 64.2367 18.3493 64.1514 17.944C63.81 17.9653 63.4794 17.976 63.1594 17.976C62.8394 17.976 62.5087 17.9867 62.1674 18.008V16.6H70.4234V17.656C69.442 17.656 68.7594 17.8053 68.3754 18.104C67.9914 18.4027 67.842 18.8187 67.9274 19.352C68.034 19.864 68.3007 20.4613 68.7274 21.144L71.2874 25.176C71.4794 25.4747 71.682 25.784 71.8954 26.104C72.1087 26.424 72.322 26.7547 72.5354 27.096C72.77 27.416 73.0154 27.7573 73.2714 28.12H73.3354C73.57 27.6507 73.8047 27.2027 74.0394 26.776C74.274 26.328 74.498 25.9013 74.7114 25.496L77.4314 20.344C77.538 20.1307 77.666 19.8853 77.8154 19.608C77.986 19.3093 78.1674 19.0107 78.3594 18.712C78.5514 18.392 78.754 18.1253 78.9674 17.912C78.562 17.9333 78.146 17.9547 77.7194 17.976C77.2927 17.976 76.866 17.9867 76.4394 18.008V16.6H82.9674V17.656C81.922 17.72 81.058 18.0827 80.3754 18.744C79.714 19.4053 79.01 20.4187 78.2634 21.784C77.538 23.1493 76.834 24.4613 76.1514 25.72C75.49 26.9787 74.85 28.2053 74.2314 29.4C74.2314 29.784 74.2207 30.296 74.1994 30.936C74.1994 31.576 74.1994 32.2267 74.1994 32.888C74.1994 33.528 74.1994 34.072 74.1994 34.52C74.1994 34.968 74.1994 35.192 74.1994 35.192C74.1994 35.768 74.1887 36.2693 74.1674 36.696C74.1674 37.1013 74.146 37.4427 74.1034 37.72C74.5514 37.6987 74.9887 37.6773 75.4154 37.656C75.8634 37.6347 76.3114 37.6133 76.7594 37.592V39H69.2394Z" fill="black"/>
<path d="M20.8443 33V32.208C21.3243 32.208 21.6923 32.08 21.9483 31.824C22.2043 31.568 22.4123 31.216 22.5723 30.768C22.7483 30.32 22.9483 29.8 23.1723 29.208L28.1163 15.744H28.6923L34.0443 29.4C34.1723 29.736 34.3163 30.168 34.4763 30.696C34.6363 31.224 34.7003 31.672 34.6683 32.04C34.9403 32.024 35.2123 32.008 35.4843 31.992C35.7563 31.976 36.0283 31.96 36.3003 31.944V33H30.8043V32.208C31.4123 32.192 31.8123 32.056 32.0043 31.8C32.1963 31.544 32.2683 31.24 32.2203 30.888C32.1723 30.536 32.0923 30.216 31.9803 29.928L31.1403 27.672L24.9003 27.816L24.0603 30.384C23.9483 30.768 23.8443 31.072 23.7483 31.296C23.6683 31.52 23.5723 31.768 23.4603 32.04C23.7803 32.024 24.0923 32.008 24.3963 31.992C24.7163 31.976 25.0283 31.96 25.3323 31.944V33H20.8443ZM25.2603 26.784H30.8043L29.1003 22.2C28.9243 21.704 28.7403 21.216 28.5483 20.736C28.3723 20.24 28.1963 19.744 28.0203 19.248H27.9723C27.8123 19.696 27.6443 20.144 27.4683 20.592C27.3083 21.04 27.1403 21.496 26.9643 21.96L25.2603 26.784Z" fill="black"/>
<path d="M102.115 66.768L82.9628 41.04C82.6748 40.656 82.3868 40.288 82.0988 39.936C81.8428 39.552 81.5708 39.168 81.2828 38.784H81.2348L81.3788 59.328C81.3788 60.128 81.3788 60.928 81.3788 61.728C81.3788 62.528 81.3468 63.312 81.2828 64.08C81.8588 64.048 82.4348 64.016 83.0108 63.984C83.5868 63.952 84.1628 63.92 84.7388 63.888V66H75.9548V64.416C76.9468 64.416 77.6508 64.208 78.0668 63.792C78.5148 63.344 78.8028 62.832 78.9308 62.256C79.0588 61.648 79.1228 61.104 79.1228 60.624L79.1708 37.536C79.1708 36.992 79.1708 36.448 79.1708 35.904C79.1708 35.36 79.1708 34.832 79.1708 34.32C78.6588 34.352 78.1308 34.384 77.5868 34.416C77.0428 34.448 76.4988 34.48 75.9548 34.512V32.4H81.6668L99.6667 56.496C100.083 57.04 100.483 57.584 100.867 58.128C101.283 58.672 101.699 59.216 102.115 59.76H102.163L102.211 37.776C102.211 37.136 102.227 36.528 102.259 35.952C102.291 35.344 102.323 34.8 102.355 34.32C101.779 34.352 101.203 34.384 100.627 34.416C100.051 34.448 99.4748 34.48 98.8988 34.512V32.4H107.731V33.984C106.547 34.016 105.731 34.288 105.283 34.8C104.835 35.312 104.595 36 104.563 36.864C104.531 37.728 104.515 38.736 104.515 39.888L104.419 66.768H102.115Z" fill="black"/>
<path d="M126.94 27.528C126.908 25.64 126.716 24.072 126.364 22.824C126.012 21.576 125.388 20.648 124.492 20.04C123.628 19.4 122.364 19.096 120.7 19.128H116.62L116.572 45.288C116.572 46.152 116.556 46.904 116.524 47.544C116.524 48.152 116.492 48.664 116.428 49.08C117.1 49.048 117.756 49.016 118.396 48.984C119.068 48.952 119.74 48.92 120.412 48.888V51H109.132V49.416C110.348 49.352 111.164 49.064 111.58 48.552C112.028 48.04 112.268 47.352 112.3 46.488C112.364 45.592 112.396 44.6 112.396 43.512L112.444 19.176L107.5 19.224C105.484 19.224 104.06 19.896 103.228 21.24C102.396 22.584 101.98 24.68 101.98 27.528H100.204L100.492 17.4H128.476L128.764 27.528H126.94Z" fill="black"/>
<path d="M137.414 51.568C137.414 50.16 137.222 49.152 136.838 48.544C136.454 47.936 135.846 47.568 135.014 47.44C134.182 47.312 133.078 47.28 131.702 47.344L128.198 47.488V58.48C128.198 59.344 128.182 60.08 128.15 60.688C128.15 61.296 128.118 61.808 128.054 62.224L137.222 62.08C138.63 62.048 139.846 61.824 140.87 61.408C141.894 60.96 142.694 60.192 143.27 59.104C143.846 58.016 144.134 56.528 144.134 54.64H145.766L145.478 64H120.71V62.416C121.926 62.352 122.758 62.08 123.206 61.6C123.654 61.088 123.894 60.4 123.926 59.536C123.99 58.64 124.022 57.632 124.022 56.512V35.776C124.022 35.136 124.038 34.528 124.07 33.952C124.102 33.344 124.134 32.8 124.166 32.32C123.59 32.352 123.014 32.384 122.438 32.416C121.862 32.448 121.286 32.48 120.71 32.512V30.4H143.798L144.038 38.8H142.454C142.454 36.912 142.166 35.488 141.59 34.528C141.014 33.536 140.23 32.88 139.238 32.56C138.278 32.208 137.19 32.048 135.974 32.08L131.846 32.176C130.662 32.208 129.814 32.432 129.302 32.848C128.79 33.264 128.47 33.888 128.342 34.72C128.246 35.52 128.198 36.576 128.198 37.888V45.568L137.222 45.616L136.886 41.488H138.998V51.568H137.414Z" fill="black"/>
<path d="M143.99 53V51.416C145.526 51.096 146.726 50.456 147.59 49.496C148.486 48.504 149.478 47.224 150.566 45.656L156.806 36.728C154.598 33.624 152.87 31.208 151.622 29.48C150.374 27.72 149.398 26.344 148.694 25.352C148.086 24.424 147.622 23.688 147.302 23.144C147.014 22.6 146.742 22.024 146.486 21.416C146.07 21.448 145.638 21.464 145.19 21.464C144.742 21.464 144.294 21.48 143.846 21.512V19.4H156.278V20.984L154.166 21.08C153.014 21.112 152.31 21.336 152.054 21.752C151.83 22.136 151.846 22.616 152.102 23.192C152.39 23.768 152.71 24.36 153.062 24.968C153.638 25.928 154.454 27.176 155.51 28.712C156.598 30.216 157.766 31.832 159.014 33.56L163.622 26.888C164.454 25.736 165.238 24.632 165.974 23.576C166.742 22.52 167.382 21.768 167.894 21.32C167.222 21.352 166.55 21.384 165.878 21.416C165.206 21.448 164.534 21.48 163.862 21.512V19.4H173.318V20.984C172.294 21.112 171.334 21.528 170.438 22.232C169.542 22.936 168.71 23.784 167.942 24.776C167.174 25.736 166.454 26.696 165.782 27.656L160.358 35.336C161.51 36.872 162.63 38.376 163.718 39.848C164.838 41.288 165.846 42.6 166.742 43.784C167.638 44.936 168.326 45.848 168.806 46.52C169.35 47.256 169.894 48.008 170.438 48.776C171.014 49.512 171.574 50.248 172.118 50.984C172.566 50.952 173.03 50.936 173.51 50.936C173.99 50.936 174.454 50.92 174.902 50.888V53H163.142V51.416C164.39 51.448 165.206 51.288 165.59 50.936C165.974 50.552 166.086 50.088 165.926 49.544C165.798 48.968 165.542 48.424 165.158 47.912C164.422 46.92 163.43 45.64 162.182 44.072C160.934 42.472 159.574 40.648 158.102 38.6C157.302 39.752 156.502 40.92 155.702 42.104C154.934 43.256 154.15 44.44 153.35 45.656C152.774 46.52 152.166 47.416 151.526 48.344C150.918 49.272 150.214 50.2 149.414 51.128C150.086 51.064 150.742 51.016 151.382 50.984C152.054 50.952 152.726 50.92 153.398 50.888V53H143.99Z" fill="black"/>
</svg>
